<svg width="154" height="203" viewBox="0 0 154 203" fill="none" xmlns="http://www.w3.org/2000/svg">
<path d="M-224.205 205.328C-219.398 238.789 -193.569 281.839 -158.068 267.194C-131.233 256.124 -162.049 228.794 -130.793 205.008C-99.5356 181.222 -53.8364 178.944 -27.3724 204.773C-7.88468 223.793 -32.2905 249.303 -16.1028 270.634C21.1058 319.666 157.96 284.053 153.187 224.206C150.024 184.536 94.6662 188.161 71.636 154.707C43.654 114.059 78.7644 67.3295 39.139 35.2156C9.17244 10.9296 -24.0412 -10.9115 -61.1813 7.18827C-109.416 30.6948 4.48307 98.9263 -40.691 126.936C-61.6782 139.949 -79.2261 136.822 -104.371 137.833C-135.108 139.068 -153.407 117.009 -181.802 128.485C-216.218 142.395 -228.848 173 -224.205 205.328Z" fill="url(#paint0_linear_949_6620)" fill-opacity="0.8"/>
<defs>
<linearGradient id="paint0_linear_949_6620" x1="-253" y1="37.2354" x2="103.381" y2="343.927" gradientUnits="userSpaceOnUse">
<stop stop-color="#FF6FD8"/>
<stop offset="1" stop-color="#3813C2"/>
</linearGradient>
</defs>
</svg>
